<mxfile host="app.diagrams.net" agent="Mozilla/5.0 (Macintosh; Intel Mac OS X 10_15_7) AppleWebKit/537.36 (KHTML, like Gecko) Chrome/127.0.0.0 Safari/537.36" version="24.7.6">
  <diagram name="Page-1" id="5rtCzuBLSSJNc42E7Tf_">
    <mxGraphModel dx="1116" dy="2153" grid="0" gridSize="10" guides="1" tooltips="1" connect="1" arrows="1" fold="1" page="0" pageScale="1" pageWidth="827" pageHeight="1169" math="0" shadow="0">
      <root>
        <mxCell id="0" />
        <mxCell id="1" parent="0" />
        <mxCell id="2" value="Advanced Stock Prediction Tool" style="whiteSpace=wrap;strokeWidth=2;verticalAlign=top;" parent="1" vertex="1">
          <mxGeometry width="279" height="322" as="geometry" />
        </mxCell>
        <mxCell id="3" value="Core Components" style="whiteSpace=wrap;strokeWidth=2;verticalAlign=top;" parent="2" vertex="1">
          <mxGeometry x="33" y="43" width="229" height="252" as="geometry" />
        </mxCell>
        <mxCell id="4" value="LSTM Module" style="whiteSpace=wrap;strokeWidth=2;" parent="3" vertex="1">
          <mxGeometry x="69" y="33" width="107" height="34" as="geometry" />
        </mxCell>
        <mxCell id="5" value="Technical Analysis" style="whiteSpace=wrap;strokeWidth=2;" parent="3" vertex="1">
          <mxGeometry x="51" y="117" width="143" height="34" as="geometry" />
        </mxCell>
        <mxCell id="6" value="Feature Engineering" style="whiteSpace=wrap;strokeWidth=2;" parent="3" vertex="1">
          <mxGeometry x="43" y="201" width="159" height="34" as="geometry" />
        </mxCell>
        <mxCell id="7" value="" style="curved=1;startArrow=none;endArrow=block;exitX=0.19;exitY=-0.26;entryX=0.27;entryY=-1.26;" parent="3" source="4" target="5" edge="1">
          <mxGeometry relative="1" as="geometry">
            <Array as="points" />
          </mxGeometry>
        </mxCell>
        <mxCell id="8" value="" style="curved=1;startArrow=none;endArrow=block;exitX=0.27;exitY=-0.26;entryX=0.29;entryY=-1.26;" parent="3" source="5" target="6" edge="1">
          <mxGeometry relative="1" as="geometry">
            <Array as="points" />
          </mxGeometry>
        </mxCell>
      </root>
    </mxGraphModel>
  </diagram>
</mxfile>
